<svg width="40" height="60" viewBox="0 0 40 60" fill="none" xmlns="http://www.w3.org/2000/svg">
<g clip-path="url(#clip0_3_2662)">
<path d="M20 60C24.4183 60 28 56.4183 28 52C28 47.5817 24.4183 44 20 44C15.5817 44 12 47.5817 12 52C12 56.4183 15.5817 60 20 60Z" fill="#959595" fill-opacity="0.3"/>
<path d="M20 56C22.2091 56 24 54.2091 24 52C24 49.7909 22.2091 48 20 48C17.7909 48 16 49.7909 16 52C16 54.2091 17.7909 56 20 56Z" fill="#91A0A8"/>
<path d="M34.142 33.985L23.535 44.544C22.5954 45.4768 21.325 46.0003 20.001 46.0003C18.677 46.0003 17.4066 45.4768 16.467 44.544L5.857 33.985C4.00075 32.1406 2.52759 29.9474 1.52231 27.5315C0.517042 25.1156 -0.000488281 22.5247 -0.000488281 19.908C-0.000488281 17.2912 0.517042 14.7004 1.52231 12.2844C2.52759 9.86852 4.00075 7.67528 5.857 5.83095C9.61611 2.09616 14.7 0 19.999 0C25.298 0 30.3819 2.09616 34.141 5.83095C35.9973 7.67528 37.4704 9.86852 38.4757 12.2844C39.481 14.7004 39.9985 17.2912 39.9985 19.908C39.9985 22.5247 39.481 25.1156 38.4757 27.5315C37.4704 29.9474 35.9983 32.1406 34.142 33.985Z" fill="#91A0A8"/>
<path d="M20 36C28.8366 36 36 28.8366 36 20C36 11.1634 28.8366 4 20 4C11.1634 4 4 11.1634 4 20C4 28.8366 11.1634 36 20 36Z" fill="white"/>
<path d="M19.999 27.546C15.64 27.546 12.099 24.511 12.099 20.78C12.099 20.5148 12.2044 20.2605 12.3919 20.0729C12.5794 19.8854 12.8338 19.78 13.099 19.78C13.3642 19.78 13.6186 19.8854 13.8061 20.0729C13.9936 20.2605 14.099 20.5148 14.099 20.78C14.099 23.408 16.749 25.546 19.999 25.546C23.249 25.546 25.905 23.408 25.905 20.78C25.905 20.5148 26.0104 20.2605 26.1979 20.0729C26.3854 19.8854 26.6398 19.78 26.905 19.78C27.1702 19.78 27.4246 19.8854 27.6121 20.0729C27.7996 20.2605 27.905 20.5148 27.905 20.78C27.905 24.507 24.359 27.546 19.999 27.546Z" fill="#91A0A8"/>
<path d="M24.6071 15.2239C24.6859 14.6881 24.9698 14.2041 25.399 13.874C25.8283 13.5439 26.3689 13.3936 26.9069 13.4549C27.4441 13.3945 27.9835 13.5451 28.4117 13.8752C28.84 14.2053 29.1234 14.6889 29.2018 15.2239C29.1242 15.7594 28.841 16.2437 28.4127 16.5744C27.9844 16.9051 27.4446 17.0563 26.9069 16.996C26.3684 17.0572 25.8274 16.9064 25.3981 16.5757C24.9688 16.2449 24.6852 15.7601 24.6071 15.2239ZM10.7955 15.2239C10.8741 14.688 11.1583 14.2038 11.5875 13.8736C12.0168 13.5435 12.5583 13.3934 13.0963 13.4549C13.6343 13.3939 14.175 13.5442 14.6041 13.8742C15.0333 14.2043 15.3171 14.6883 15.3961 15.2239C15.3178 15.76 15.0334 16.2447 14.6041 16.5754C14.1749 16.9061 13.6347 17.0569 13.0963 16.996C12.558 17.0572 12.0167 16.9064 11.5875 16.5757C11.1584 16.2449 10.8734 15.76 10.7955 15.2239Z" fill="#91A0A8"/>
</g>
<defs>
<clipPath id="clip0_3_2662">
<rect width="40" height="60" fill="white"/>
</clipPath>
</defs>
</svg>
